<?xml version="1.0" encoding="UTF-8" standalone="no"?>
<!-- Created with Inkscape (http://www.inkscape.org/) -->

<svg
   width="226"
   height="80"
   viewBox="0 0 59.795823 21.166667"
   version="1.1"
   id="svg5"
   inkscape:version="1.2.2 (1:1.2.2+202212051552+b0a8486541)"
   sodipodi:docname="logo1.svg"
   xmlns:inkscape="http://www.inkscape.org/namespaces/inkscape"
   xmlns:sodipodi="http://sodipodi.sourceforge.net/DTD/sodipodi-0.dtd"
   xmlns="http://www.w3.org/2000/svg"
   xmlns:svg="http://www.w3.org/2000/svg">
  <sodipodi:namedview
     id="namedview7"
     pagecolor="#ffffff"
     bordercolor="#666666"
     borderopacity="1.0"
     inkscape:pageshadow="2"
     inkscape:pageopacity="0.0"
     inkscape:pagecheckerboard="0"
     inkscape:document-units="px"
     showgrid="false"
     units="px"
     inkscape:zoom="3.1617317"
     inkscape:cx="159.09003"
     inkscape:cy="66.577439"
     inkscape:window-width="1366"
     inkscape:window-height="704"
     inkscape:window-x="0"
     inkscape:window-y="0"
     inkscape:window-maximized="1"
     inkscape:current-layer="layer1"
     inkscape:showpageshadow="2"
     inkscape:deskcolor="#d1d1d1" />
  <defs
     id="defs2">
    <filter
       style="color-interpolation-filters:sRGB"
       inkscape:label="Drop Shadow"
       id="filter12013"
       x="-0.04646818"
       y="-0.10545686"
       width="1.1413407"
       height="1.2109137">
      <feFlood
         flood-opacity="0.498039"
         flood-color="rgb(0,0,0)"
         result="flood"
         id="feFlood12003" />
      <feComposite
         in="flood"
         in2="SourceGraphic"
         operator="in"
         result="composite1"
         id="feComposite12005" />
      <feGaussianBlur
         in="composite1"
         stdDeviation="0.4"
         result="blur"
         id="feGaussianBlur12007" />
      <feOffset
         dx="1"
         dy="0"
         result="offset"
         id="feOffset12009" />
      <feComposite
         in="SourceGraphic"
         in2="offset"
         operator="over"
         result="composite2"
         id="feComposite12011" />
    </filter>
  </defs>
  <g
     inkscape:label="Camada 1"
     inkscape:groupmode="layer"
     id="layer1">
    <g
       aria-label="&lt;/&gt;"
       id="text2383"
       style="font-size:12.1494px;line-height:1.25;font-family:'Yu Gothic UI';-inkscape-font-specification:'Yu Gothic UI';fill:#333333;stroke-width:0.867814"
       transform="matrix(0.79594137,0,0,0.79594137,2.7991913,1.9793983)">
      <path
         d="M 10.383618,6.9444603 4.2614592,9.1216232 10.383618,11.286922 v 1.079683 L 2.7783782,9.6080738 V 8.623308 L 10.383618,5.8647773 Z"
         id="path1617"
         style="fill:#333333" />
      <path
         d="m 14.75574,4.0672831 h 1.008495 l -3.084808,9.9841019 h -1.008495 z"
         id="path1619"
         style="fill:#333333" />
      <path
         d="M 17.05155,6.9444603 V 5.8647773 L 24.656789,8.623308 V 9.6080738 L 17.05155,12.366605 v -1.079683 l 6.110293,-2.1652988 z"
         id="path1621"
         style="fill:#333333" />
    </g>
    <path
       d="M 25.409314,2.0716761 H 2.0257937 c -0.7425076,0 -1.34661852,0.604111 -1.34661852,1.346618 V 16.670208 c 0,0.742507 0.60411092,1.346619 1.34661852,1.346619 h 7.1145218 v 1.609119 h -1.352794 c -0.194862,0 -0.3529034,0.158043 -0.3529034,0.352903 0,0.194863 0.1580414,0.352903 0.3529034,0.352903 H 19.609767 c 0.194861,0 0.352903,-0.15804 0.352903,-0.352903 0,-0.19486 -0.158042,-0.352903 -0.352903,-0.352903 h -1.352795 v -1.609119 h 7.1524 c 0.742508,0 1.34662,-0.604112 1.34662,-1.346619 V 3.4182941 c -6e-5,-0.742507 -0.60417,-1.346618 -1.346678,-1.346618 z M 2.0257937,2.7774821 H 25.409314 c 0.353314,0 0.640812,0.287439 0.640812,0.640812 V 15.567563 H 1.3849809 V 3.4182941 c 0,-0.353373 0.2874394,-0.640812 0.6408128,-0.640812 z M 17.551108,19.625889 H 9.8460625 v -1.60912 h 7.7050455 z m 7.858206,-2.314925 H 2.0257937 c -0.3533146,0 -0.6408128,-0.28744 -0.6408128,-0.640814 V 16.273251 H 26.050126 v 0.396899 c 0,0.353374 -0.287498,0.640814 -0.640812,0.640814 z"
       id="path941"
       style="fill:#333333;stroke-width:0.0588171" />
    <g
       id="g18099"
       transform="translate(4.6353343,-0.7648832)"
       style="fill:#333333">
      <g
         aria-label="CM"
         id="text7109"
         style="font-size:12.6434px;line-height:1.25;font-family:'Yu Gothic UI';-inkscape-font-specification:'Yu Gothic UI';fill:#333333;stroke-width:0.9031;filter:url(#filter12013)">
        <path
           d="m 37.740355,6.7309133 h -7.320529 q -0.0885,0 -0.0885,0.088504 V 12.4078 q 0,0.0885 0.0885,0.0885 h 7.320529 v 1.668929 h -7.320529 q -0.733317,0 -1.251697,-0.505736 -0.505736,-0.51838 -0.505736,-1.251697 V 6.8194171 q 0,-0.7333172 0.505736,-1.2390532 0.51838,-0.5183794 1.251697,-0.5183794 h 7.320529 z"
           style="font-weight:bold;font-family:Orbitron;-inkscape-font-specification:'Orbitron Bold';fill:#333333"
           id="path18119" />
        <path
           d="m 44.188471,9.0067254 3.299928,-3.9447409 h 1.833293 V 14.165233 H 47.64012 V 7.4895174 L 44.188471,11.598622 40.72418,7.4895174 V 14.165233 H 39.055251 V 5.0619845 H 40.8759 Z"
           style="font-weight:bold;font-family:Orbitron;-inkscape-font-specification:'Orbitron Bold';fill:#333333"
           id="path18121" />
      </g>
      <g
         aria-label="web developer"
         id="text13971"
         style="font-weight:bold;font-size:3.70417px;line-height:1.25;font-family:'Overpass Mono';-inkscape-font-specification:'Overpass Mono Bold';fill:#333333;stroke-width:0.264583">
        <path
           d="m 25.275455,19.086672 -0.485247,-1.892831 h 0.385234 l 0.240771,0.974197 q 0.01297,0.04815 0.02037,0.0926 0.0093,0.0426 0.01667,0.0926 0.0093,-0.05556 0.01482,-0.09631 0.0074,-0.0426 0.01852,-0.0926 l 0.225955,-0.970493 h 0.325967 l 0.225954,0.974197 q 0.01111,0.0463 0.02037,0.09075 0.0093,0.04445 0.01667,0.09816 0.0093,-0.05371 0.01667,-0.09631 0.0074,-0.0426 0.02037,-0.0926 l 0.233363,-0.974197 h 0.388938 l -0.48895,1.892831 h -0.325967 l -0.218546,-0.948268 q -0.01111,-0.04815 -0.02593,-0.122237 -0.01482,-0.07594 -0.02593,-0.137055 -0.01111,0.06112 -0.02778,0.137055 -0.01667,0.07408 -0.02778,0.122237 l -0.211138,0.948268 z"
           id="path18124"
           style="fill:#333333" />
        <path
           d="m 28.198042,19.131122 q -0.281517,0 -0.485246,-0.122238 -0.201878,-0.124089 -0.311151,-0.34634 -0.10742,-0.224102 -0.10742,-0.52414 0,-0.307446 0.111125,-0.527844 0.111125,-0.22225 0.313002,-0.340784 0.203729,-0.120385 0.47969,-0.120385 0.227806,0 0.414867,0.09631 0.187061,0.09631 0.296334,0.294482 0.111125,0.198173 0.111125,0.505619 0,0.05001 -0.0019,0.118534 -0.0019,0.06853 -0.01297,0.140758 h -1.38536 v -0.363009 h 0.981606 q -0.01297,-0.146314 -0.07223,-0.238919 -0.05927,-0.0926 -0.146314,-0.135202 -0.08705,-0.04445 -0.185209,-0.04445 -0.261144,0 -0.377825,0.162984 -0.11483,0.162983 -0.11483,0.4445 0,0.279665 0.129646,0.451909 0.131498,0.170392 0.366713,0.170392 0.125942,0 0.227807,-0.04445 0.101864,-0.04445 0.190764,-0.140758 l 0.255588,0.270404 q -0.118533,0.129646 -0.288925,0.211138 -0.16854,0.08149 -0.388938,0.08149 z"
           id="path18126"
           style="fill:#333333" />
        <path
           d="m 30.531666,19.131122 q -0.168539,0 -0.287073,-0.05186 -0.116681,-0.05186 -0.194469,-0.137054 v 0.144463 h -0.425979 v -2.47809 l 0.425979,-0.196321 v 0.929747 q 0.07779,-0.08705 0.21299,-0.138907 0.137054,-0.05371 0.275961,-0.05371 0.233362,0 0.413015,0.120385 0.181504,0.118534 0.283369,0.340784 0.103716,0.220398 0.103716,0.527844 0,0.47969 -0.218546,0.73713 -0.216694,0.255588 -0.588963,0.255588 z m -0.06668,-0.407459 q 0.225955,0 0.335228,-0.157427 0.109273,-0.159279 0.109273,-0.427832 0,-0.283369 -0.112978,-0.433388 -0.111125,-0.151871 -0.331523,-0.151871 -0.101864,0 -0.185208,0.02963 -0.08149,0.02963 -0.140759,0.07408 -0.05741,0.0426 -0.0889,0.0852 v 0.796397 q 0.06668,0.0889 0.170392,0.137054 0.105569,0.04815 0.244475,0.04815 z"
           id="path18128"
           style="fill:#333333" />
        <path
           d="m 34.935919,19.131122 q -0.25744,0 -0.444501,-0.116681 -0.18706,-0.116682 -0.288925,-0.338932 -0.100012,-0.22225 -0.100012,-0.537105 0,-0.307446 0.105568,-0.527844 0.105569,-0.22225 0.290778,-0.340784 0.185208,-0.120385 0.425979,-0.120385 0.15928,0 0.279665,0.05371 0.122238,0.05186 0.190765,0.127794 v -0.722313 l 0.42598,-0.196321 v 2.674411 h -0.42598 v -0.144463 q -0.05186,0.06853 -0.174096,0.129646 -0.120386,0.05927 -0.285221,0.05927 z m 0.05927,-0.407459 q 0.150018,0 0.244475,-0.0463 0.09446,-0.04815 0.155575,-0.138906 v -0.800101 q -0.04445,-0.06112 -0.140758,-0.122238 -0.09631,-0.06297 -0.266701,-0.06297 -0.218546,0 -0.337079,0.151871 -0.118534,0.150019 -0.118534,0.433388 0,0.174096 0.05371,0.305594 0.05371,0.131498 0.155575,0.205582 0.103717,0.07408 0.253737,0.07408 z"
           id="path18130"
           style="fill:#333333" />
        <path
           d="m 37.325106,19.131122 q -0.281517,0 -0.485247,-0.122238 -0.201877,-0.124089 -0.31115,-0.34634 -0.107421,-0.224102 -0.107421,-0.52414 0,-0.307446 0.111125,-0.527844 0.111125,-0.22225 0.313003,-0.340784 0.203729,-0.120385 0.47969,-0.120385 0.227806,0 0.414867,0.09631 0.18706,0.09631 0.296333,0.294482 0.111125,0.198173 0.111125,0.505619 0,0.05001 -0.0019,0.118534 -0.0019,0.06853 -0.01296,0.140758 h -1.38536 v -0.363009 h 0.981605 q -0.01296,-0.146314 -0.07223,-0.238919 -0.05927,-0.0926 -0.146315,-0.135202 -0.08705,-0.04445 -0.185208,-0.04445 -0.261144,0 -0.377826,0.162984 -0.114829,0.162983 -0.114829,0.4445 0,0.279665 0.129646,0.451909 0.131498,0.170392 0.366713,0.170392 0.125942,0 0.227806,-0.04445 0.101865,-0.04445 0.190765,-0.140758 l 0.255588,0.270404 q -0.118534,0.129646 -0.288925,0.211138 -0.16854,0.08149 -0.388938,0.08149 z"
           id="path18132"
           style="fill:#333333" />
        <path
           d="m 39.358692,19.086672 -0.73713,-1.892831 h 0.455613 l 0.437092,1.200151 q 0.01667,0.04445 0.02963,0.09075 0.01296,0.0463 0.02593,0.112977 0.01111,-0.06668 0.02408,-0.112977 0.01482,-0.0463 0.03149,-0.09075 l 0.433387,-1.200151 h 0.451909 l -0.73713,1.892831 z"
           id="path18134"
           style="fill:#333333" />
        <path
           d="m 41.888638,19.131122 q -0.281517,0 -0.485247,-0.122238 -0.201877,-0.124089 -0.31115,-0.34634 -0.107421,-0.224102 -0.107421,-0.52414 0,-0.307446 0.111125,-0.527844 0.111125,-0.22225 0.313003,-0.340784 0.203729,-0.120385 0.47969,-0.120385 0.227806,0 0.414867,0.09631 0.18706,0.09631 0.296333,0.294482 0.111125,0.198173 0.111125,0.505619 0,0.05001 -0.0019,0.118534 -0.0019,0.06853 -0.01296,0.140758 h -1.38536 v -0.363009 h 0.981605 q -0.01296,-0.146314 -0.07223,-0.238919 -0.05927,-0.0926 -0.146315,-0.135202 -0.08705,-0.04445 -0.185208,-0.04445 -0.261144,0 -0.377826,0.162984 -0.114829,0.162983 -0.114829,0.4445 0,0.279665 0.129646,0.451909 0.131498,0.170392 0.366713,0.170392 0.125942,0 0.227806,-0.04445 0.101865,-0.04445 0.190765,-0.140758 l 0.255588,0.270404 q -0.118534,0.129646 -0.288926,0.211138 -0.168539,0.08149 -0.388937,0.08149 z"
           id="path18136"
           style="fill:#333333" />
        <path
           d="m 43.914816,19.086672 v -2.674411 h 0.425979 v 2.674411 z m -0.551921,0 v -0.374121 h 1.529822 v 0.374121 z m 0.111125,-2.30029 -0.196321,-0.374121 h 1.063096 v 0.374121 z"
           id="path18138"
           style="fill:#333333" />
        <path
           d="m 46.411423,19.131122 q -0.279665,0 -0.483394,-0.120386 -0.20373,-0.120385 -0.314855,-0.340783 -0.109273,-0.22225 -0.109273,-0.527845 0,-0.301889 0.109273,-0.52414 0.111125,-0.224102 0.314855,-0.346339 0.203729,-0.122238 0.483394,-0.122238 0.281517,0 0.485246,0.122238 0.203729,0.120385 0.313002,0.344487 0.109273,0.222251 0.109273,0.525992 0,0.303742 -0.109273,0.525993 -0.109273,0.22225 -0.313002,0.342635 -0.203729,0.120386 -0.485246,0.120386 z m 0,-0.407459 q 0.233362,0 0.3556,-0.159279 0.122238,-0.159279 0.122238,-0.422276 0,-0.264848 -0.120386,-0.425979 -0.120385,-0.162984 -0.357452,-0.162984 -0.229659,0 -0.353749,0.161132 -0.124089,0.161131 -0.124089,0.427831 0,0.262997 0.124089,0.422276 0.12409,0.159279 0.353749,0.159279 z"
           id="path18140"
           style="fill:#333333" />
        <path
           d="m 47.878272,19.83121 v -2.637369 h 0.42598 v 0.144463 q 0.07594,-0.08149 0.185208,-0.135203 0.111125,-0.05371 0.277813,-0.05371 0.251884,0 0.437092,0.116681 0.187061,0.116682 0.288925,0.338932 0.103717,0.22225 0.103717,0.537104 0,0.311151 -0.107421,0.533401 -0.107421,0.220398 -0.294481,0.338932 -0.187061,0.116681 -0.424128,0.116681 -0.172244,0 -0.283369,-0.05556 -0.111125,-0.05741 -0.183356,-0.140758 v 0.700088 z m 0.829734,-1.107547 q 0.220398,0 0.338932,-0.150019 0.120385,-0.151871 0.120385,-0.431536 0,-0.2667 -0.118533,-0.427831 -0.118534,-0.161132 -0.344488,-0.161132 -0.140758,0 -0.240771,0.05186 -0.09816,0.05001 -0.159279,0.137054 v 0.792693 q 0.05371,0.07408 0.155575,0.131498 0.101865,0.05741 0.248179,0.05741 z"
           id="path18142"
           style="fill:#333333" />
        <path
           d="m 51.015702,19.131122 q -0.281517,0 -0.485246,-0.122238 -0.201877,-0.124089 -0.31115,-0.34634 -0.107421,-0.224102 -0.107421,-0.52414 0,-0.307446 0.111125,-0.527844 0.111125,-0.22225 0.313002,-0.340784 0.20373,-0.120385 0.47969,-0.120385 0.227807,0 0.414867,0.09631 0.187061,0.09631 0.296334,0.294482 0.111125,0.198173 0.111125,0.505619 0,0.05001 -0.0019,0.118534 -0.0019,0.06853 -0.01297,0.140758 h -1.385359 v -0.363009 h 0.981605 q -0.01297,-0.146314 -0.07223,-0.238919 -0.05927,-0.0926 -0.146315,-0.135202 -0.08705,-0.04445 -0.185209,-0.04445 -0.261144,0 -0.377825,0.162984 -0.114829,0.162983 -0.114829,0.4445 0,0.279665 0.129646,0.451909 0.131498,0.170392 0.366713,0.170392 0.125941,0 0.227806,-0.04445 0.101865,-0.04445 0.190765,-0.140758 l 0.255587,0.270404 q -0.118533,0.129646 -0.288925,0.211138 -0.16854,0.08149 -0.388938,0.08149 z"
           id="path18144"
           style="fill:#333333" />
        <path
           d="m 52.30475,19.086672 v -0.374121 h 0.40005 v -1.144589 h -0.40005 v -0.374121 h 0.796396 v 0.418571 l -0.02222,-0.05556 q 0.03519,-0.116682 0.129646,-0.209286 0.09631,-0.0926 0.237067,-0.144463 0.142611,-0.05371 0.314855,-0.05371 0.14261,0 0.251883,0.03148 0.109273,0.02963 0.181504,0.06853 v 0.700088 h -0.414867 v -0.574147 l 0.181505,0.185209 q -0.05556,-0.0093 -0.103717,-0.01297 -0.0463,-0.0056 -0.07779,-0.0056 -0.233362,0 -0.375973,0.06853 -0.14261,0.06668 -0.207433,0.192617 -0.06482,0.125942 -0.06482,0.298186 v 0.611188 h 0.529696 v 0.374121 z"
           id="path18146"
           style="fill:#333333" />
      </g>
    </g>
  </g>
</svg>
